name D:\school\WTK\thesis\model\3dpredictsim\Results\batch_windlass\Pog_s1_tmt_bCst_d05_k500_WL10_ig24_pas.mot
datacolumns 128
datarows 4
range 0.54211044 0.57463706
endheader
time	pelvis_tilt	pelvis_list	pelvis_rotation	pelvis_tx	pelvis_ty	pelvis_tz	hip_flexion_l	hip_adduction_l	hip_rotation_l	hip_flexion_r	hip_adduction_r	hip_rotation_r	knee_angle_l	knee_angle_r	ankle_angle_l	ankle_angle_r	subtalar_angle_l	subtalar_angle_r	tmt_angle_l	tmt_angle_r	mtp_angle_l	mtp_angle_r	lumbar_extension	lumbar_bending	lumbar_rotation	arm_flex_l	arm_add_l	arm_rot_l	arm_flex_r	arm_add_r	arm_rot_r	elbow_flex_l	elbow_flex_r	pro_sup_l	pro_sup_r	glut_med1_l/activation	glut_med2_l/activation	glut_med3_l/activation	glut_min1_l/activation	glut_min2_l/activation	glut_min3_l/activation	semimem_l/activation	semiten_l/activation	bifemlh_l/activation	bifemsh_l/activation	sar_l/activation	add_long_l/activation	add_brev_l/activation	add_mag1_l/activation	add_mag2_l/activation	add_mag3_l/activation	tfl_l/activation	pect_l/activation	grac_l/activation	glut_max1_l/activation	glut_max2_l/activation	glut_max3_l/activation	iliacus_l/activation	psoas_l/activation	quad_fem_l/activation	gem_l/activation	peri_l/activation	rect_fem_l/activation	vas_med_l/activation	vas_int_l/activation	vas_lat_l/activation	med_gas_l/activation	lat_gas_l/activation	soleus_l/activation	tib_post_l/activation	flex_dig_l/activation	flex_hal_l/activation	tib_ant_l/activation	per_brev_l/activation	per_long_l/activation	per_tert_l/activation	ext_dig_l/activation	ext_hal_l/activation	ercspn_l/activation	intobl_l/activation	extobl_l/activation	glut_med1_r/activation	glut_med2_r/activation	glut_med3_r/activation	glut_min1_r/activation	glut_min2_r/activation	glut_min3_r/activation	semimem_r/activation	semiten_r/activation	bifemlh_r/activation	bifemsh_r/activation	sar_r/activation	add_long_r/activation	add_brev_r/activation	add_mag1_r/activation	add_mag2_r/activation	add_mag3_r/activation	tfl_r/activation	pect_r/activation	grac_r/activation	glut_max1_r/activation	glut_max2_r/activation	glut_max3_r/activation	iliacus_r/activation	psoas_r/activation	quad_fem_r/activation	gem_r/activation	peri_r/activation	rect_fem_r/activation	vas_med_r/activation	vas_int_r/activation	vas_lat_r/activation	med_gas_r/activation	lat_gas_r/activation	soleus_r/activation	tib_post_r/activation	flex_dig_r/activation	flex_hal_r/activation	tib_ant_r/activation	per_brev_r/activation	per_long_r/activation	per_tert_r/activation	ext_dig_r/activation	ext_hal_r/activation	ercspn_r/activation	intobl_r/activation	extobl_r/activation	
          0.54211044	         -2.92427796	          1.65144068	         -6.31763474	          0.67763805	          0.85442819	          0.00284760	         32.56005637	          2.55267988	         -2.53674672	        -18.93160509	         -1.59839997	          8.58849761	        -19.82448114	         -8.61271384	         -1.66026543	         -2.08802307	         -4.66850329	         10.24473992	          0.06515361	          0.10547436	          0.05002914	         25.86886158	         -1.16176965	          0.21730798	          1.81411686	         -8.04906829	        -13.69714985	          9.35702710	          5.23937940	        -13.47334781	         16.40618472	         16.66996896	         34.55130869	         86.51662706	         86.51662706	          0.05000050	          0.05000027	          0.05903497	          0.05000014	          0.05000018	          0.05000065	          0.05000097	          0.05903532	          0.21328166	          0.05000089	          0.05000021	          0.10549431	          0.17206746	          0.15792614	          0.16080653	          0.12993725	          0.05014556	          0.05000221	          0.05903585	          0.05903518	          0.11985056	          0.11346756	          0.06572558	          0.06884246	          0.19712254	          0.05000023	          0.05000012	          0.05000067	          0.11136791	          0.11591663	          0.09488480	          0.07324004	          0.06122343	          0.05000001	          0.05000003	          0.05903522	          0.05903503	          0.38827557	          0.33424512	          0.18532025	          0.24367312	          0.57090113	          0.11460535	          0.05835464	          0.11995516	          0.11472905	          0.26960787	          0.08841313	          0.05001813	          0.31698220	          0.19388948	          0.09716769	          0.05000105	          0.05000014	          0.05000011	          0.07514718	          0.09751486	          0.09924043	          0.05000014	          0.05000021	          0.05000057	          0.05000065	          0.29944138	          0.05000097	          0.05000041	          0.05000337	          0.05000188	          0.05000105	          0.39829133	          0.59282238	          0.05000026	          0.05000136	          0.05000028	          0.24297282	          0.09393115	          0.10519294	          0.05000136	          0.31639877	          0.41200834	          0.27523011	          0.22976715	          0.22739470	          0.31482099	          0.05000000	          0.07454578	          0.17087321	          0.05000003	          0.05000000	          0.05000003	          0.05000000	          0.05000004	          0.05000001	
          0.55295265	         -2.91343200	          1.76902668	         -6.61695723	          0.69431390	          0.85326984	          0.00266014	         32.00743530	          2.98584966	         -2.30052139	        -18.72743079	         -1.94818992	          8.37411192	        -19.49486936	        -10.58744038	         -2.11549864	         -2.95314371	         -5.42163168	         11.36322920	          0.06874920	         -0.58014468	          0.16226140	         27.02780257	         -0.94398902	         -0.02849063	          1.88760698	         -9.14232140	        -13.69427499	          9.13262756	          4.97041896	        -13.50462702	         16.72387892	         16.60365105	         35.63285208	         86.51662706	         86.51662706	          0.05141046	          0.05003896	          0.05000004	          0.05903524	          0.05903518	          0.05000089	          0.05000015	          0.05000017	          0.20371607	          0.05000004	          0.05000047	          0.09723423	          0.22730526	          0.13375622	          0.16675761	          0.14429770	          0.05000007	          0.08042111	          0.05000070	          0.05000012	          0.14983475	          0.15769870	          0.05903547	          0.05830640	          0.24765200	          0.09717027	          0.08320251	          0.06158196	          0.19267538	          0.18973375	          0.16139460	          0.06203086	          0.05185365	          0.05406028	          0.05000001	          0.05000012	          0.05000014	          0.53353858	          0.28308984	          0.15695750	          0.51250340	          0.64060683	          0.27076431	          0.05000002	          0.10159636	          0.09717009	          0.25029760	          0.07488175	          0.05000001	          0.26846904	          0.16421524	          0.08229646	          0.05000048	          0.05000006	          0.05000004	          0.06364611	          0.08259061	          0.15393888	          0.14268900	          0.05000073	          0.05000053	          0.05000012	          0.25361277	          0.12915061	          0.05000056	          0.05000030	          0.05000019	          0.05000015	          0.33733396	          0.54367380	          0.05000003	          0.05000014	          0.05000013	          0.20578650	          0.07955567	          0.08909385	          0.15896298	          0.26797480	          0.34895158	          0.23310689	          0.19460194	          0.19259263	          0.26663854	          0.05000000	          0.06313679	          0.14472164	          0.05000008	          0.05000002	          0.05000006	          0.05000004	          0.05000002	          0.05000005	
          0.56379486	         -2.89741363	          1.89003660	         -6.88698550	          0.71128565	          0.85201318	          0.00246990	         31.33102068	          3.41221802	         -1.99045481	        -18.41859687	         -2.28474971	          8.15025355	        -19.78822590	        -12.75097928	         -2.57683048	         -3.93379421	         -6.20362789	         12.42689505	          0.04292758	         -1.26144420	          0.29981036	         27.92310148	         -0.70319213	         -0.28518065	          1.95177918	        -10.24490014	        -13.69323984	          8.95995426	          4.61718465	        -13.54722853	         16.97270259	         16.54359880	         36.71474116	         86.51662706	         86.51662706	          0.05000003	          0.05000005	          0.15555849	          0.05000008	          0.05000006	          0.05000008	          0.05000003	          0.05000007	          0.17253790	          0.05000004	          0.05000039	          0.08235284	          0.19251695	          0.29314041	          0.24516805	          0.17042757	          0.05000025	          0.06814082	          0.08235544	          0.14706715	          0.17872367	          0.13427824	          0.05000036	          0.05000032	          0.28184774	          0.08229869	          0.07046863	          0.05903519	          0.28160950	          0.27216058	          0.23431791	          0.05903521	          0.05000012	          0.05000001	          0.05000006	          0.05902677	          0.05000047	          0.51881350	          0.23976374	          0.13293562	          0.43406662	          0.57185162	          0.22932461	          0.05000000	          0.08604731	          0.08229847	          0.21199026	          0.06342131	          0.05014613	          0.22738064	          0.13908256	          0.06970122	          0.05000072	          0.05000011	          0.05000023	          0.05390526	          0.06995041	          0.23204072	          0.33665181	          0.06982491	          0.05903618	          0.14003732	          0.21479807	          0.10938475	          0.05000054	          0.05004614	          0.05014648	          0.05903496	          0.28570593	          0.48630228	          0.05903513	          0.05903462	          0.05000010	          0.17429143	          0.13317513	          0.13546064	          0.13463444	          0.22696198	          0.29554549	          0.19743051	          0.16481865	          0.16311690	          0.22583027	          0.09243962	          0.05347390	          0.13684403	          0.05000005	          0.11895070	          0.05000041	          0.06346296	          0.05903518	          0.05903524	
          0.57463706	         -2.87851363	          2.01595203	         -7.12372431	          0.72839749	          0.85070610	          0.00228568	         30.45573560	          3.80936373	         -1.64113138	        -17.99466627	         -2.60293224	          7.92409971	        -20.28110855	        -15.09889391	         -2.64332414	         -4.99254256	         -7.03558857	         13.40138226	         -0.36241033	         -1.88872199	          0.30080293	         28.30183168	         -0.45210663	         -0.55187754	          2.00417186	        -11.31569902	        -13.69706075	          8.87633027	          4.20462042	        -13.59440473	         17.15528679	         16.45433326	         37.78092927	         86.51662706	         86.51662706	          0.29562828	          0.35000798	          0.46321553	          0.28418861	          0.23616693	          0.31690692	          0.08158523	          0.10683063	          0.14613147	          0.06565309	          0.05000023	          0.06974899	          0.16305278	          0.24827614	          0.20764588	          0.16557154	          0.05000009	          0.05771338	          0.10150760	          0.27584304	          0.23625950	          0.15133491	          0.05000010	          0.05000007	          0.23871178	          0.06970321	          0.21942243	          0.05000003	          0.26938437	          0.28389943	          0.24373503	          0.05000006	          0.05000010	          0.05292668	          0.07774110	          0.05000015	          0.05000028	          0.62119390	          0.20306856	          0.11259019	          0.38183386	          0.60868759	          0.33303471	          0.05250871	          0.08229862	          0.06970291	          0.25250735	          0.05371486	          0.05000000	          0.23431007	          0.11779638	          0.05903366	          0.05000257	          0.05000015	          0.05000009	          0.05000012	          0.05924482	          0.20558706	          0.28512836	          0.05913847	          0.05000107	          0.11860506	          0.21570704	          0.09264412	          0.05000020	          0.05000029	          0.05000019	          0.05000015	          0.24197943	          0.45263220	          0.05000002	          0.05000009	          0.05000003	          0.14761660	          0.11279305	          0.11472876	          0.11402902	          0.19222606	          0.25031305	          0.16721430	          0.13959362	          0.13815234	          0.19126760	          0.15544933	          0.12757873	          0.13829408	          0.30612098	          0.23024564	          0.09718674	          0.09367466	          0.05000001	          0.05000007	
